REM MD5 6ad9560b4b7ed1dbd3e10e650ddfaa8a
FILE "Animal Snap - Rescue Them 2 by 2 (Europe).bin" BINARY
  TRACK 01 MODE2/2352
    INDEX 01 00:00:00
  TRACK 02 AUDIO
    INDEX 00 05:22:09
    INDEX 01 05:24:09
  TRACK 03 AUDIO
    INDEX 00 06:54:15
    INDEX 01 06:56:15
  TRACK 04 AUDIO
    INDEX 00 07:04:27
    INDEX 01 07:06:27
  TRACK 05 AUDIO
    INDEX 00 08:31:63
    INDEX 01 08:33:63
  TRACK 06 AUDIO
    INDEX 00 08:42:00
    INDEX 01 08:44:00
REM LEADOUT 12:44:02
